<mxfile host="app.diagrams.net" modified="2024-07-16T11:10:43.267Z" agent="Mozilla/5.0 (Macintosh; Intel Mac OS X 10_15_7) AppleWebKit/537.36 (KHTML, like Gecko) Chrome/126.0.0.0 Safari/537.36" etag="dFm06Bt81f6XmYbRdgjK" version="24.6.5" type="github">
  <diagram name="第 1 页" id="JwEo4ZOWfjB8EyRa8ezt">
    <mxGraphModel dx="1434" dy="745" grid="1" gridSize="10" guides="1" tooltips="1" connect="1" arrows="1" fold="1" page="1" pageScale="1" pageWidth="827" pageHeight="1169" math="0" shadow="0">
      <root>
        <mxCell id="0" />
        <mxCell id="1" parent="0" />
        <mxCell id="l0JusLFjUwzGI8Q3Fxrc-1" value="" style="rounded=0;whiteSpace=wrap;html=1;direction=west;" parent="1" vertex="1">
          <mxGeometry x="30" y="100" width="1510" height="110" as="geometry" />
        </mxCell>
        <mxCell id="l0JusLFjUwzGI8Q3Fxrc-2" value="私域MOD" style="rounded=1;whiteSpace=wrap;html=1;" parent="1" vertex="1">
          <mxGeometry x="346.75" y="150" width="80" height="35" as="geometry" />
        </mxCell>
        <mxCell id="l0JusLFjUwzGI8Q3Fxrc-3" value="私域MOP" style="rounded=1;whiteSpace=wrap;html=1;" parent="1" vertex="1">
          <mxGeometry x="444.75" y="150" width="80" height="35" as="geometry" />
        </mxCell>
        <mxCell id="l0JusLFjUwzGI8Q3Fxrc-4" value="公域平台MOD" style="rounded=1;whiteSpace=wrap;html=1;" parent="1" vertex="1">
          <mxGeometry x="545.75" y="150" width="100" height="35" as="geometry" />
        </mxCell>
        <mxCell id="l0JusLFjUwzGI8Q3Fxrc-5" value="公域平台MOP" style="rounded=1;whiteSpace=wrap;html=1;" parent="1" vertex="1">
          <mxGeometry x="665.75" y="150" width="100" height="35" as="geometry" />
        </mxCell>
        <mxCell id="l0JusLFjUwzGI8Q3Fxrc-6" value="POS点单" style="rounded=1;whiteSpace=wrap;html=1;" parent="1" vertex="1">
          <mxGeometry x="785.75" y="150" width="100" height="35" as="geometry" />
        </mxCell>
        <mxCell id="l0JusLFjUwzGI8Q3Fxrc-7" value="咖啡生活馆" style="rounded=1;whiteSpace=wrap;html=1;" parent="1" vertex="1">
          <mxGeometry x="905.75" y="150" width="100" height="35" as="geometry" />
        </mxCell>
        <mxCell id="l0JusLFjUwzGI8Q3Fxrc-8" value="卡券售卖" style="rounded=1;whiteSpace=wrap;html=1;" parent="1" vertex="1">
          <mxGeometry x="1145.75" y="150" width="100" height="35" as="geometry" />
        </mxCell>
        <mxCell id="l0JusLFjUwzGI8Q3Fxrc-9" value="用星说" style="rounded=1;whiteSpace=wrap;html=1;" parent="1" vertex="1">
          <mxGeometry x="1025.75" y="150" width="100" height="35" as="geometry" />
        </mxCell>
        <mxCell id="l0JusLFjUwzGI8Q3Fxrc-10" value="支撑业务" style="text;html=1;align=center;verticalAlign=middle;whiteSpace=wrap;rounded=0;fontSize=16;" parent="1" vertex="1">
          <mxGeometry x="771.5" y="110" width="79.5" height="30" as="geometry" />
        </mxCell>
        <mxCell id="l0JusLFjUwzGI8Q3Fxrc-12" value="" style="rounded=0;whiteSpace=wrap;html=1;" parent="1" vertex="1">
          <mxGeometry x="30" y="230" width="1510" height="760" as="geometry" />
        </mxCell>
        <mxCell id="l0JusLFjUwzGI8Q3Fxrc-15" value="业务服务层" style="text;html=1;align=center;verticalAlign=middle;whiteSpace=wrap;rounded=0;fontSize=16;" parent="1" vertex="1">
          <mxGeometry x="40" y="480" width="60" height="30" as="geometry" />
        </mxCell>
        <mxCell id="l0JusLFjUwzGI8Q3Fxrc-16" value="" style="rounded=0;whiteSpace=wrap;html=1;" parent="1" vertex="1">
          <mxGeometry x="110" y="250" width="1410" height="470" as="geometry" />
        </mxCell>
        <mxCell id="l0JusLFjUwzGI8Q3Fxrc-17" value="" style="rounded=0;whiteSpace=wrap;html=1;" parent="1" vertex="1">
          <mxGeometry x="110" y="730" width="1410" height="230" as="geometry" />
        </mxCell>
        <mxCell id="l0JusLFjUwzGI8Q3Fxrc-18" value="核心域能力" style="text;html=1;align=center;verticalAlign=middle;whiteSpace=wrap;rounded=0;fontSize=16;" parent="1" vertex="1">
          <mxGeometry x="40" y="845" width="60" height="30" as="geometry" />
        </mxCell>
        <mxCell id="l0JusLFjUwzGI8Q3Fxrc-23" value="" style="rounded=0;whiteSpace=wrap;html=1;" parent="1" vertex="1">
          <mxGeometry x="138" y="760" width="432" height="170" as="geometry" />
        </mxCell>
        <mxCell id="l0JusLFjUwzGI8Q3Fxrc-24" value="商品服务" style="text;html=1;align=center;verticalAlign=middle;whiteSpace=wrap;rounded=0;" parent="1" vertex="1">
          <mxGeometry x="138" y="760" width="60" height="30" as="geometry" />
        </mxCell>
        <mxCell id="lA0qyLo4BKjcHxZ-h1YO-49" value="SKU(poskey)" style="rounded=1;whiteSpace=wrap;html=1;" parent="1" vertex="1">
          <mxGeometry x="161" y="790" width="80" height="35" as="geometry" />
        </mxCell>
        <mxCell id="lA0qyLo4BKjcHxZ-h1YO-50" value="商品分类" style="rounded=1;whiteSpace=wrap;html=1;" parent="1" vertex="1">
          <mxGeometry x="361" y="840" width="80" height="35" as="geometry" />
        </mxCell>
        <mxCell id="lA0qyLo4BKjcHxZ-h1YO-51" value="实物商品" style="rounded=1;whiteSpace=wrap;html=1;" parent="1" vertex="1">
          <mxGeometry x="260" y="790" width="80" height="35" as="geometry" />
        </mxCell>
        <mxCell id="lA0qyLo4BKjcHxZ-h1YO-52" value="配料" style="rounded=1;whiteSpace=wrap;html=1;" parent="1" vertex="1">
          <mxGeometry x="260" y="842.5" width="80" height="35" as="geometry" />
        </mxCell>
        <mxCell id="lA0qyLo4BKjcHxZ-h1YO-61" value="咖啡豆" style="rounded=1;whiteSpace=wrap;html=1;" parent="1" vertex="1">
          <mxGeometry x="460" y="840" width="80" height="35" as="geometry" />
        </mxCell>
        <mxCell id="lA0qyLo4BKjcHxZ-h1YO-63" value="虚拟商品" style="rounded=1;whiteSpace=wrap;html=1;" parent="1" vertex="1">
          <mxGeometry x="361" y="790" width="80" height="35" as="geometry" />
        </mxCell>
        <mxCell id="lA0qyLo4BKjcHxZ-h1YO-64" value="Combo" style="rounded=1;whiteSpace=wrap;html=1;" parent="1" vertex="1">
          <mxGeometry x="460" y="790" width="80" height="35" as="geometry" />
        </mxCell>
        <mxCell id="l0JusLFjUwzGI8Q3Fxrc-28" value="" style="rounded=0;whiteSpace=wrap;html=1;" parent="1" vertex="1">
          <mxGeometry x="601" y="760" width="330" height="170" as="geometry" />
        </mxCell>
        <mxCell id="l0JusLFjUwzGI8Q3Fxrc-29" value="价格服务" style="text;html=1;align=center;verticalAlign=middle;whiteSpace=wrap;rounded=0;" parent="1" vertex="1">
          <mxGeometry x="601" y="760" width="60" height="30" as="geometry" />
        </mxCell>
        <mxCell id="l0JusLFjUwzGI8Q3Fxrc-30" value="规格" style="rounded=1;whiteSpace=wrap;html=1;" parent="1" vertex="1">
          <mxGeometry x="161" y="840" width="80" height="35" as="geometry" />
        </mxCell>
        <mxCell id="l0JusLFjUwzGI8Q3Fxrc-33" value="门店价格" style="rounded=1;whiteSpace=wrap;html=1;" parent="1" vertex="1">
          <mxGeometry x="622" y="800" width="80" height="35" as="geometry" />
        </mxCell>
        <mxCell id="l0JusLFjUwzGI8Q3Fxrc-34" value="渠道价格" style="rounded=1;whiteSpace=wrap;html=1;" parent="1" vertex="1">
          <mxGeometry x="722" y="800" width="80" height="35" as="geometry" />
        </mxCell>
        <mxCell id="l0JusLFjUwzGI8Q3Fxrc-35" value="定时变价" style="rounded=1;whiteSpace=wrap;html=1;" parent="1" vertex="1">
          <mxGeometry x="822" y="800" width="80" height="35" as="geometry" />
        </mxCell>
        <mxCell id="l0JusLFjUwzGI8Q3Fxrc-36" value="" style="rounded=0;whiteSpace=wrap;html=1;dashed=1;" parent="1" vertex="1">
          <mxGeometry x="121" y="492.5" width="390" height="207.5" as="geometry" />
        </mxCell>
        <mxCell id="l0JusLFjUwzGI8Q3Fxrc-38" value="基础商品管理" style="text;html=1;align=center;verticalAlign=middle;whiteSpace=wrap;rounded=0;" parent="1" vertex="1">
          <mxGeometry x="120" y="492.5" width="106" height="30" as="geometry" />
        </mxCell>
        <mxCell id="l0JusLFjUwzGI8Q3Fxrc-39" value="" style="rounded=0;whiteSpace=wrap;html=1;dashed=1;" parent="1" vertex="1">
          <mxGeometry x="121" y="290" width="290" height="177.5" as="geometry" />
        </mxCell>
        <mxCell id="l0JusLFjUwzGI8Q3Fxrc-40" value="O2O菜单管理" style="text;html=1;align=center;verticalAlign=middle;whiteSpace=wrap;rounded=0;" parent="1" vertex="1">
          <mxGeometry x="124" y="292.5" width="106" height="30" as="geometry" />
        </mxCell>
        <mxCell id="l0JusLFjUwzGI8Q3Fxrc-41" value="" style="rounded=0;whiteSpace=wrap;html=1;dashed=1;" parent="1" vertex="1">
          <mxGeometry x="423" y="290" width="198" height="180" as="geometry" />
        </mxCell>
        <mxCell id="l0JusLFjUwzGI8Q3Fxrc-42" value="EC菜单管理" style="text;html=1;align=center;verticalAlign=middle;whiteSpace=wrap;rounded=0;" parent="1" vertex="1">
          <mxGeometry x="417" y="292" width="106" height="30" as="geometry" />
        </mxCell>
        <mxCell id="l0JusLFjUwzGI8Q3Fxrc-43" value="上新管理" style="rounded=1;whiteSpace=wrap;html=1;" parent="1" vertex="1">
          <mxGeometry x="139" y="522.5" width="80" height="35" as="geometry" />
        </mxCell>
        <mxCell id="l0JusLFjUwzGI8Q3Fxrc-44" value="渠道商品管理" style="rounded=1;whiteSpace=wrap;html=1;" parent="1" vertex="1">
          <mxGeometry x="233" y="522.5" width="80" height="35" as="geometry" />
        </mxCell>
        <mxCell id="l0JusLFjUwzGI8Q3Fxrc-45" value="Combo管理" style="rounded=1;whiteSpace=wrap;html=1;" parent="1" vertex="1">
          <mxGeometry x="323" y="522.5" width="80" height="35" as="geometry" />
        </mxCell>
        <mxCell id="l0JusLFjUwzGI8Q3Fxrc-46" value="分类管理" style="rounded=1;whiteSpace=wrap;html=1;" parent="1" vertex="1">
          <mxGeometry x="417" y="522.5" width="80" height="35" as="geometry" />
        </mxCell>
        <mxCell id="l0JusLFjUwzGI8Q3Fxrc-47" value="规格管理" style="rounded=1;whiteSpace=wrap;html=1;" parent="1" vertex="1">
          <mxGeometry x="138" y="567" width="80" height="35" as="geometry" />
        </mxCell>
        <mxCell id="l0JusLFjUwzGI8Q3Fxrc-48" value="配料管理" style="rounded=1;whiteSpace=wrap;html=1;" parent="1" vertex="1">
          <mxGeometry x="233" y="567" width="80" height="35" as="geometry" />
        </mxCell>
        <mxCell id="l0JusLFjUwzGI8Q3Fxrc-49" value="商品素材管理" style="rounded=1;whiteSpace=wrap;html=1;" parent="1" vertex="1">
          <mxGeometry x="325" y="567" width="80" height="35" as="geometry" />
        </mxCell>
        <mxCell id="l0JusLFjUwzGI8Q3Fxrc-50" value="门店商品维护" style="rounded=1;whiteSpace=wrap;html=1;" parent="1" vertex="1">
          <mxGeometry x="138" y="610" width="80" height="35" as="geometry" />
        </mxCell>
        <mxCell id="l0JusLFjUwzGI8Q3Fxrc-51" value="平台类目管理" style="rounded=1;whiteSpace=wrap;html=1;" parent="1" vertex="1">
          <mxGeometry x="233" y="610" width="80" height="35" as="geometry" />
        </mxCell>
        <mxCell id="l0JusLFjUwzGI8Q3Fxrc-52" value="商品上下架" style="rounded=1;whiteSpace=wrap;html=1;" parent="1" vertex="1">
          <mxGeometry x="325" y="611" width="80" height="35" as="geometry" />
        </mxCell>
        <mxCell id="l0JusLFjUwzGI8Q3Fxrc-53" value="商品同步" style="rounded=1;whiteSpace=wrap;html=1;" parent="1" vertex="1">
          <mxGeometry x="417" y="611" width="80" height="35" as="geometry" />
        </mxCell>
        <mxCell id="l0JusLFjUwzGI8Q3Fxrc-56" value="" style="rounded=0;whiteSpace=wrap;html=1;dashed=1;" parent="1" vertex="1">
          <mxGeometry x="740.25" y="490" width="240.75" height="210" as="geometry" />
        </mxCell>
        <mxCell id="l0JusLFjUwzGI8Q3Fxrc-57" value="公域渠道管理" style="text;html=1;align=center;verticalAlign=middle;whiteSpace=wrap;rounded=0;" parent="1" vertex="1">
          <mxGeometry x="736.25" y="490" width="106" height="30" as="geometry" />
        </mxCell>
        <mxCell id="l0JusLFjUwzGI8Q3Fxrc-58" value="商品类目" style="rounded=1;whiteSpace=wrap;html=1;" parent="1" vertex="1">
          <mxGeometry x="756.25" y="524" width="80" height="35" as="geometry" />
        </mxCell>
        <mxCell id="l0JusLFjUwzGI8Q3Fxrc-59" value="商品同步" style="rounded=1;whiteSpace=wrap;html=1;" parent="1" vertex="1">
          <mxGeometry x="851" y="524" width="80" height="35" as="geometry" />
        </mxCell>
        <mxCell id="l0JusLFjUwzGI8Q3Fxrc-60" value="商品上下架" style="rounded=1;whiteSpace=wrap;html=1;" parent="1" vertex="1">
          <mxGeometry x="756.25" y="575" width="80" height="35" as="geometry" />
        </mxCell>
        <mxCell id="l0JusLFjUwzGI8Q3Fxrc-61" value="菜单同步" style="rounded=1;whiteSpace=wrap;html=1;" parent="1" vertex="1">
          <mxGeometry x="851" y="576" width="80" height="35" as="geometry" />
        </mxCell>
        <mxCell id="l0JusLFjUwzGI8Q3Fxrc-62" value="客制化同步" style="rounded=1;whiteSpace=wrap;html=1;" parent="1" vertex="1">
          <mxGeometry x="756.25" y="622.5" width="80" height="35" as="geometry" />
        </mxCell>
        <mxCell id="l0JusLFjUwzGI8Q3Fxrc-63" value="客制化管理" style="rounded=1;whiteSpace=wrap;html=1;" parent="1" vertex="1">
          <mxGeometry x="417" y="567" width="80" height="35" as="geometry" />
        </mxCell>
        <mxCell id="l0JusLFjUwzGI8Q3Fxrc-67" style="rounded=0;orthogonalLoop=1;jettySize=auto;html=1;startArrow=none;startFill=0;endArrow=none;endFill=0;entryX=0.631;entryY=1.002;entryDx=0;entryDy=0;entryPerimeter=0;" parent="1" edge="1" target="l0JusLFjUwzGI8Q3Fxrc-16">
          <mxGeometry relative="1" as="geometry">
            <mxPoint x="1001.3299999999999" y="250" as="sourcePoint" />
            <mxPoint x="1000.0000000000005" y="713" as="targetPoint" />
          </mxGeometry>
        </mxCell>
        <mxCell id="l0JusLFjUwzGI8Q3Fxrc-68" value="" style="rounded=0;whiteSpace=wrap;html=1;dashed=1;" parent="1" vertex="1">
          <mxGeometry x="1017.75" y="290" width="236" height="163" as="geometry" />
        </mxCell>
        <mxCell id="l0JusLFjUwzGI8Q3Fxrc-69" value="O2O菜单导购" style="text;html=1;align=center;verticalAlign=middle;whiteSpace=wrap;rounded=0;" parent="1" vertex="1">
          <mxGeometry x="1017.75" y="300" width="106" height="30" as="geometry" />
        </mxCell>
        <mxCell id="l0JusLFjUwzGI8Q3Fxrc-70" value="MOD菜单查询" style="rounded=1;whiteSpace=wrap;html=1;" parent="1" vertex="1">
          <mxGeometry x="1031.75" y="340.5" width="80" height="35" as="geometry" />
        </mxCell>
        <mxCell id="l0JusLFjUwzGI8Q3Fxrc-71" value="MOP菜单查询" style="rounded=1;whiteSpace=wrap;html=1;" parent="1" vertex="1">
          <mxGeometry x="1133.75" y="340.5" width="80" height="35" as="geometry" />
        </mxCell>
        <mxCell id="l0JusLFjUwzGI8Q3Fxrc-78" value="渠道规则过滤" style="rounded=1;whiteSpace=wrap;html=1;" parent="1" vertex="1">
          <mxGeometry x="1031.75" y="395.5" width="80" height="35" as="geometry" />
        </mxCell>
        <mxCell id="l0JusLFjUwzGI8Q3Fxrc-79" value="菜单降级能力" style="rounded=1;whiteSpace=wrap;html=1;" parent="1" vertex="1">
          <mxGeometry x="1133.75" y="395.5" width="80" height="35" as="geometry" />
        </mxCell>
        <mxCell id="l0JusLFjUwzGI8Q3Fxrc-80" value="" style="rounded=0;whiteSpace=wrap;html=1;dashed=1;" parent="1" vertex="1">
          <mxGeometry x="1263.75" y="290" width="236" height="161.5" as="geometry" />
        </mxCell>
        <mxCell id="l0JusLFjUwzGI8Q3Fxrc-81" value="生活馆货架" style="text;html=1;align=center;verticalAlign=middle;whiteSpace=wrap;rounded=0;" parent="1" vertex="1">
          <mxGeometry x="1247.75" y="300" width="106" height="30" as="geometry" />
        </mxCell>
        <mxCell id="l0JusLFjUwzGI8Q3Fxrc-82" value="门店自取货架" style="rounded=1;whiteSpace=wrap;html=1;" parent="1" vertex="1">
          <mxGeometry x="1273.75" y="337.5" width="80" height="35" as="geometry" />
        </mxCell>
        <mxCell id="l0JusLFjUwzGI8Q3Fxrc-83" value="快递到家货架" style="rounded=1;whiteSpace=wrap;html=1;" parent="1" vertex="1">
          <mxGeometry x="1383.75" y="338" width="80" height="35" as="geometry" />
        </mxCell>
        <mxCell id="l0JusLFjUwzGI8Q3Fxrc-84" value="优先购活动" style="rounded=1;whiteSpace=wrap;html=1;" parent="1" vertex="1">
          <mxGeometry x="1273.75" y="391.5" width="80" height="35" as="geometry" />
        </mxCell>
        <mxCell id="l0JusLFjUwzGI8Q3Fxrc-85" value="" style="rounded=0;whiteSpace=wrap;html=1;dashed=1;" parent="1" vertex="1">
          <mxGeometry x="1017.75" y="565" width="236" height="135" as="geometry" />
        </mxCell>
        <mxCell id="l0JusLFjUwzGI8Q3Fxrc-87" value="商品列表" style="rounded=1;whiteSpace=wrap;html=1;" parent="1" vertex="1">
          <mxGeometry x="1033.75" y="602.5" width="80" height="35" as="geometry" />
        </mxCell>
        <mxCell id="l0JusLFjUwzGI8Q3Fxrc-88" value="商品详情" style="rounded=1;whiteSpace=wrap;html=1;" parent="1" vertex="1">
          <mxGeometry x="1143.75" y="602.5" width="80" height="35" as="geometry" />
        </mxCell>
        <mxCell id="l0JusLFjUwzGI8Q3Fxrc-89" value="客制化查询" style="rounded=1;whiteSpace=wrap;html=1;" parent="1" vertex="1">
          <mxGeometry x="1033.75" y="651" width="80" height="35" as="geometry" />
        </mxCell>
        <mxCell id="l0JusLFjUwzGI8Q3Fxrc-90" value="商品可售库存" style="rounded=1;whiteSpace=wrap;html=1;" parent="1" vertex="1">
          <mxGeometry x="1143.75" y="652" width="80" height="35" as="geometry" />
        </mxCell>
        <mxCell id="l0JusLFjUwzGI8Q3Fxrc-92" value="" style="rounded=0;whiteSpace=wrap;html=1;dashed=1;" parent="1" vertex="1">
          <mxGeometry x="1263.75" y="567" width="236" height="135" as="geometry" />
        </mxCell>
        <mxCell id="l0JusLFjUwzGI8Q3Fxrc-93" value="搜索推荐" style="text;html=1;align=center;verticalAlign=middle;whiteSpace=wrap;rounded=0;" parent="1" vertex="1">
          <mxGeometry x="1245.75" y="568.75" width="106" height="30" as="geometry" />
        </mxCell>
        <mxCell id="l0JusLFjUwzGI8Q3Fxrc-91" value="关键字检索" style="rounded=1;whiteSpace=wrap;html=1;" parent="1" vertex="1">
          <mxGeometry x="1273.75" y="604.5" width="80" height="35" as="geometry" />
        </mxCell>
        <mxCell id="l0JusLFjUwzGI8Q3Fxrc-94" value="商品推荐" style="rounded=1;whiteSpace=wrap;html=1;" parent="1" vertex="1">
          <mxGeometry x="1383.75" y="604.5" width="80" height="35" as="geometry" />
        </mxCell>
        <mxCell id="l0JusLFjUwzGI8Q3Fxrc-95" value="" style="rounded=0;whiteSpace=wrap;html=1;dashed=1;" parent="1" vertex="1">
          <mxGeometry x="1017.75" y="475" width="236" height="80" as="geometry" />
        </mxCell>
        <mxCell id="l0JusLFjUwzGI8Q3Fxrc-96" value="用星说" style="text;html=1;align=center;verticalAlign=middle;whiteSpace=wrap;rounded=0;" parent="1" vertex="1">
          <mxGeometry x="1001.75" y="477.5" width="106" height="30" as="geometry" />
        </mxCell>
        <mxCell id="l0JusLFjUwzGI8Q3Fxrc-97" value="礼品货架" style="rounded=1;whiteSpace=wrap;html=1;" parent="1" vertex="1">
          <mxGeometry x="1027.75" y="507.5" width="80" height="35" as="geometry" />
        </mxCell>
        <mxCell id="l0JusLFjUwzGI8Q3Fxrc-98" value="礼品卡/券" style="rounded=1;whiteSpace=wrap;html=1;" parent="1" vertex="1">
          <mxGeometry x="1137.75" y="507.5" width="80" height="35" as="geometry" />
        </mxCell>
        <mxCell id="l0JusLFjUwzGI8Q3Fxrc-99" value="商品导购交易" style="text;html=1;align=center;verticalAlign=middle;whiteSpace=wrap;rounded=0;fontSize=16;" parent="1" vertex="1">
          <mxGeometry x="1203" y="258.5" width="110" height="30" as="geometry" />
        </mxCell>
        <mxCell id="l0JusLFjUwzGI8Q3Fxrc-100" value="商品运营管理" style="text;html=1;align=center;verticalAlign=middle;whiteSpace=wrap;rounded=0;fontSize=16;" parent="1" vertex="1">
          <mxGeometry x="469.5" y="259" width="110" height="30" as="geometry" />
        </mxCell>
        <mxCell id="l0JusLFjUwzGI8Q3Fxrc-101" value="菜单模板" style="rounded=1;whiteSpace=wrap;html=1;" parent="1" vertex="1">
          <mxGeometry x="135.5" y="330" width="80" height="35" as="geometry" />
        </mxCell>
        <mxCell id="l0JusLFjUwzGI8Q3Fxrc-102" value="" style="rounded=0;whiteSpace=wrap;html=1;dashed=1;" parent="1" vertex="1">
          <mxGeometry x="521.75" y="490" width="193" height="210" as="geometry" />
        </mxCell>
        <mxCell id="l0JusLFjUwzGI8Q3Fxrc-103" value="价格管理" style="text;html=1;align=center;verticalAlign=middle;whiteSpace=wrap;rounded=0;" parent="1" vertex="1">
          <mxGeometry x="515.75" y="490" width="106" height="30" as="geometry" />
        </mxCell>
        <mxCell id="l0JusLFjUwzGI8Q3Fxrc-104" value="门店菜单" style="rounded=1;whiteSpace=wrap;html=1;" parent="1" vertex="1">
          <mxGeometry x="229" y="330" width="80" height="35" as="geometry" />
        </mxCell>
        <mxCell id="l0JusLFjUwzGI8Q3Fxrc-105" value="菜单渠道" style="rounded=1;whiteSpace=wrap;html=1;" parent="1" vertex="1">
          <mxGeometry x="319" y="330" width="80" height="35" as="geometry" />
        </mxCell>
        <mxCell id="l0JusLFjUwzGI8Q3Fxrc-106" value="运营菜单" style="rounded=1;whiteSpace=wrap;html=1;" parent="1" vertex="1">
          <mxGeometry x="135.5" y="377.5" width="80" height="35" as="geometry" />
        </mxCell>
        <mxCell id="l0JusLFjUwzGI8Q3Fxrc-108" value="当日菜单" style="rounded=1;whiteSpace=wrap;html=1;" parent="1" vertex="1">
          <mxGeometry x="226" y="378.5" width="80" height="35" as="geometry" />
        </mxCell>
        <mxCell id="l0JusLFjUwzGI8Q3Fxrc-109" value="隔日菜单" style="rounded=1;whiteSpace=wrap;html=1;" parent="1" vertex="1">
          <mxGeometry x="318" y="375" width="80" height="35" as="geometry" />
        </mxCell>
        <mxCell id="l0JusLFjUwzGI8Q3Fxrc-111" value="运营规则" style="rounded=1;whiteSpace=wrap;html=1;" parent="1" vertex="1">
          <mxGeometry x="137" y="422.5" width="80" height="35" as="geometry" />
        </mxCell>
        <mxCell id="l0JusLFjUwzGI8Q3Fxrc-112" value="到店自取菜单管理" style="rounded=1;whiteSpace=wrap;html=1;" parent="1" vertex="1">
          <mxGeometry x="438" y="330" width="80" height="35" as="geometry" />
        </mxCell>
        <mxCell id="l0JusLFjUwzGI8Q3Fxrc-113" value="快递到家菜单管理" style="rounded=1;whiteSpace=wrap;html=1;" parent="1" vertex="1">
          <mxGeometry x="531" y="330" width="80" height="35" as="geometry" />
        </mxCell>
        <mxCell id="l0JusLFjUwzGI8Q3Fxrc-114" value="菜单分类管理" style="rounded=1;whiteSpace=wrap;html=1;" parent="1" vertex="1">
          <mxGeometry x="438" y="377" width="80" height="35" as="geometry" />
        </mxCell>
        <mxCell id="l0JusLFjUwzGI8Q3Fxrc-115" value="货架商品管理" style="rounded=1;whiteSpace=wrap;html=1;" parent="1" vertex="1">
          <mxGeometry x="531" y="377" width="80" height="35" as="geometry" />
        </mxCell>
        <mxCell id="l0JusLFjUwzGI8Q3Fxrc-117" value="商品标签管理" style="rounded=1;whiteSpace=wrap;html=1;" parent="1" vertex="1">
          <mxGeometry x="138" y="655" width="80" height="35" as="geometry" />
        </mxCell>
        <mxCell id="l0JusLFjUwzGI8Q3Fxrc-118" value="商品价格管理" style="rounded=1;whiteSpace=wrap;html=1;" parent="1" vertex="1">
          <mxGeometry x="534.75" y="527" width="80" height="35" as="geometry" />
        </mxCell>
        <mxCell id="l0JusLFjUwzGI8Q3Fxrc-119" value="门店渠道价格" style="rounded=1;whiteSpace=wrap;html=1;" parent="1" vertex="1">
          <mxGeometry x="621.75" y="527" width="80" height="35" as="geometry" />
        </mxCell>
        <mxCell id="l0JusLFjUwzGI8Q3Fxrc-120" value="价格生效任务" style="rounded=1;whiteSpace=wrap;html=1;" parent="1" vertex="1">
          <mxGeometry x="534.75" y="573.75" width="80" height="35" as="geometry" />
        </mxCell>
        <mxCell id="l0JusLFjUwzGI8Q3Fxrc-121" value="价格渠道同步" style="rounded=1;whiteSpace=wrap;html=1;" parent="1" vertex="1">
          <mxGeometry x="621.75" y="573.75" width="80" height="35" as="geometry" />
        </mxCell>
        <mxCell id="l0JusLFjUwzGI8Q3Fxrc-122" value="......" style="rounded=1;whiteSpace=wrap;html=1;" parent="1" vertex="1">
          <mxGeometry x="534.75" y="622.5" width="80" height="35" as="geometry" />
        </mxCell>
        <mxCell id="l0JusLFjUwzGI8Q3Fxrc-123" value="......" style="rounded=1;whiteSpace=wrap;html=1;" parent="1" vertex="1">
          <mxGeometry x="438" y="422.5" width="80" height="35" as="geometry" />
        </mxCell>
        <mxCell id="l0JusLFjUwzGI8Q3Fxrc-124" value="" style="rounded=0;whiteSpace=wrap;html=1;dashed=1;" parent="1" vertex="1">
          <mxGeometry x="632" y="290" width="109" height="180" as="geometry" />
        </mxCell>
        <mxCell id="l0JusLFjUwzGI8Q3Fxrc-125" value="POS菜单管理" style="text;html=1;align=center;verticalAlign=middle;whiteSpace=wrap;rounded=0;" parent="1" vertex="1">
          <mxGeometry x="629" y="292" width="106" height="30" as="geometry" />
        </mxCell>
        <mxCell id="l0JusLFjUwzGI8Q3Fxrc-126" value="" style="rounded=0;whiteSpace=wrap;html=1;" parent="1" vertex="1">
          <mxGeometry x="958" y="760" width="231.5" height="170" as="geometry" />
        </mxCell>
        <mxCell id="l0JusLFjUwzGI8Q3Fxrc-127" value="同步服务" style="text;html=1;align=center;verticalAlign=middle;whiteSpace=wrap;rounded=0;" parent="1" vertex="1">
          <mxGeometry x="958" y="760" width="81.5" height="30" as="geometry" />
        </mxCell>
        <mxCell id="l0JusLFjUwzGI8Q3Fxrc-128" value="同步任务" style="rounded=1;whiteSpace=wrap;html=1;" parent="1" vertex="1">
          <mxGeometry x="984.75" y="800" width="80" height="35" as="geometry" />
        </mxCell>
        <mxCell id="l0JusLFjUwzGI8Q3Fxrc-129" value="日志记录" style="rounded=1;whiteSpace=wrap;html=1;" parent="1" vertex="1">
          <mxGeometry x="1082.75" y="800" width="80" height="35" as="geometry" />
        </mxCell>
        <mxCell id="l0JusLFjUwzGI8Q3Fxrc-130" value="数据订阅" style="rounded=1;whiteSpace=wrap;html=1;" parent="1" vertex="1">
          <mxGeometry x="984.75" y="845" width="80" height="35" as="geometry" />
        </mxCell>
        <mxCell id="l0JusLFjUwzGI8Q3Fxrc-131" value="数据补偿" style="rounded=1;whiteSpace=wrap;html=1;" parent="1" vertex="1">
          <mxGeometry x="1082.75" y="845" width="80" height="35" as="geometry" />
        </mxCell>
        <mxCell id="l0JusLFjUwzGI8Q3Fxrc-132" value="" style="rounded=0;whiteSpace=wrap;html=1;" parent="1" vertex="1">
          <mxGeometry x="1232.25" y="760" width="231.5" height="170" as="geometry" />
        </mxCell>
        <mxCell id="l0JusLFjUwzGI8Q3Fxrc-133" value="商品开放OpenAPI平台" style="text;html=1;align=center;verticalAlign=middle;whiteSpace=wrap;rounded=0;" parent="1" vertex="1">
          <mxGeometry x="1232.25" y="760" width="127.75" height="30" as="geometry" />
        </mxCell>
        <mxCell id="l0JusLFjUwzGI8Q3Fxrc-134" value="商品API" style="rounded=1;whiteSpace=wrap;html=1;" parent="1" vertex="1">
          <mxGeometry x="1254.5" y="801.5" width="80" height="35" as="geometry" />
        </mxCell>
        <mxCell id="l0JusLFjUwzGI8Q3Fxrc-135" value="价格API" style="rounded=1;whiteSpace=wrap;html=1;" parent="1" vertex="1">
          <mxGeometry x="1352.5" y="801.5" width="80" height="35" as="geometry" />
        </mxCell>
        <mxCell id="l0JusLFjUwzGI8Q3Fxrc-136" value="商品分类API" style="rounded=1;whiteSpace=wrap;html=1;" parent="1" vertex="1">
          <mxGeometry x="1254.5" y="853.5" width="80" height="35" as="geometry" />
        </mxCell>
        <mxCell id="l0JusLFjUwzGI8Q3Fxrc-137" value="......" style="rounded=1;whiteSpace=wrap;html=1;" parent="1" vertex="1">
          <mxGeometry x="1352.5" y="853.5" width="80" height="35" as="geometry" />
        </mxCell>
        <mxCell id="l0JusLFjUwzGI8Q3Fxrc-138" value="......" style="rounded=1;whiteSpace=wrap;html=1;" parent="1" vertex="1">
          <mxGeometry x="984.75" y="887" width="80" height="35" as="geometry" />
        </mxCell>
        <mxCell id="l0JusLFjUwzGI8Q3Fxrc-139" value="......" style="rounded=1;whiteSpace=wrap;html=1;" parent="1" vertex="1">
          <mxGeometry x="622" y="845" width="80" height="35" as="geometry" />
        </mxCell>
        <mxCell id="l0JusLFjUwzGI8Q3Fxrc-140" value="POS菜单商品管理" style="rounded=1;whiteSpace=wrap;html=1;" parent="1" vertex="1">
          <mxGeometry x="642" y="330" width="80" height="35" as="geometry" />
        </mxCell>
        <mxCell id="l0JusLFjUwzGI8Q3Fxrc-141" value="POS菜单商品同步" style="rounded=1;whiteSpace=wrap;html=1;" parent="1" vertex="1">
          <mxGeometry x="642" y="377" width="80" height="35" as="geometry" />
        </mxCell>
        <mxCell id="l0JusLFjUwzGI8Q3Fxrc-142" value="......" style="rounded=1;whiteSpace=wrap;html=1;" parent="1" vertex="1">
          <mxGeometry x="642" y="422.5" width="80" height="35" as="geometry" />
        </mxCell>
        <mxCell id="l0JusLFjUwzGI8Q3Fxrc-143" value="" style="rounded=0;whiteSpace=wrap;html=1;" parent="1" vertex="1">
          <mxGeometry x="30" y="1010" width="1510" height="110" as="geometry" />
        </mxCell>
        <mxCell id="pvQKCGcLA8fGIk94UltW-13" value="平台能力层" style="text;html=1;align=center;verticalAlign=middle;whiteSpace=wrap;rounded=0;fontSize=16;" parent="1" vertex="1">
          <mxGeometry x="50" y="1050" width="60" height="30" as="geometry" />
        </mxCell>
        <mxCell id="zTJ-ibRRX8hSOmWthj6w-3" value="" style="rounded=0;whiteSpace=wrap;html=1;dashed=1;" parent="1" vertex="1">
          <mxGeometry x="756.25" y="290" width="109" height="180" as="geometry" />
        </mxCell>
        <mxCell id="zTJ-ibRRX8hSOmWthj6w-4" value="Gifting商品管理" style="text;html=1;align=center;verticalAlign=middle;whiteSpace=wrap;rounded=0;" parent="1" vertex="1">
          <mxGeometry x="764.19" y="292" width="93.62" height="30" as="geometry" />
        </mxCell>
        <mxCell id="zTJ-ibRRX8hSOmWthj6w-5" value="" style="rounded=0;whiteSpace=wrap;html=1;dashed=1;" parent="1" vertex="1">
          <mxGeometry x="881" y="290" width="109" height="180" as="geometry" />
        </mxCell>
        <mxCell id="zTJ-ibRRX8hSOmWthj6w-7" value="货架商品管理" style="rounded=1;whiteSpace=wrap;html=1;" parent="1" vertex="1">
          <mxGeometry x="771" y="330" width="80" height="35" as="geometry" />
        </mxCell>
        <mxCell id="zTJ-ibRRX8hSOmWthj6w-8" value="标签管理" style="rounded=1;whiteSpace=wrap;html=1;" parent="1" vertex="1">
          <mxGeometry x="771" y="375.5" width="80" height="35" as="geometry" />
        </mxCell>
        <mxCell id="zTJ-ibRRX8hSOmWthj6w-9" value="......" style="rounded=1;whiteSpace=wrap;html=1;" parent="1" vertex="1">
          <mxGeometry x="771" y="422.5" width="80" height="35" as="geometry" />
        </mxCell>
        <mxCell id="zTJ-ibRRX8hSOmWthj6w-10" value="卡券商品管理" style="text;html=1;align=center;verticalAlign=middle;whiteSpace=wrap;rounded=0;" parent="1" vertex="1">
          <mxGeometry x="881" y="292" width="93.62" height="30" as="geometry" />
        </mxCell>
        <mxCell id="zTJ-ibRRX8hSOmWthj6w-11" value="卡券商品映射" style="rounded=1;whiteSpace=wrap;html=1;" parent="1" vertex="1">
          <mxGeometry x="895.5" y="330" width="80" height="35" as="geometry" />
        </mxCell>
        <mxCell id="zTJ-ibRRX8hSOmWthj6w-12" value="商品分类管理" style="rounded=1;whiteSpace=wrap;html=1;" parent="1" vertex="1">
          <mxGeometry x="894.6199999999999" y="375.5" width="80" height="35" as="geometry" />
        </mxCell>
        <mxCell id="zTJ-ibRRX8hSOmWthj6w-13" value="......" style="rounded=1;whiteSpace=wrap;html=1;" parent="1" vertex="1">
          <mxGeometry x="894.6199999999999" y="422.5" width="80" height="35" as="geometry" />
        </mxCell>
        <mxCell id="zTJ-ibRRX8hSOmWthj6w-14" value="商品查询" style="text;html=1;align=center;verticalAlign=middle;whiteSpace=wrap;rounded=0;" parent="1" vertex="1">
          <mxGeometry x="1010" y="565" width="93.75" height="30" as="geometry" />
        </mxCell>
        <mxCell id="zTJ-ibRRX8hSOmWthj6w-15" value="" style="rounded=0;whiteSpace=wrap;html=1;dashed=1;" parent="1" vertex="1">
          <mxGeometry x="1263.75" y="475" width="236" height="80" as="geometry" />
        </mxCell>
        <mxCell id="zTJ-ibRRX8hSOmWthj6w-16" value="公域/B2B卡券" style="text;html=1;align=center;verticalAlign=middle;whiteSpace=wrap;rounded=0;" parent="1" vertex="1">
          <mxGeometry x="1263.75" y="477.5" width="106" height="30" as="geometry" />
        </mxCell>
        <mxCell id="zTJ-ibRRX8hSOmWthj6w-17" value="卡券商品信息" style="rounded=1;whiteSpace=wrap;html=1;" parent="1" vertex="1">
          <mxGeometry x="1273.75" y="509.5" width="80" height="35" as="geometry" />
        </mxCell>
        <mxCell id="zTJ-ibRRX8hSOmWthj6w-18" value="商品卡券映射" style="rounded=1;whiteSpace=wrap;html=1;" parent="1" vertex="1">
          <mxGeometry x="1383.75" y="509.5" width="80" height="35" as="geometry" />
        </mxCell>
        <mxCell id="4RWsOriVvPdj0GlWGHnn-1" value="库存同步" style="rounded=1;whiteSpace=wrap;html=1;" vertex="1" parent="1">
          <mxGeometry x="853" y="622.5" width="80" height="35" as="geometry" />
        </mxCell>
        <mxCell id="4RWsOriVvPdj0GlWGHnn-2" value="" style="rounded=0;whiteSpace=wrap;html=1;" vertex="1" parent="1">
          <mxGeometry x="121" y="1030" width="856.25" height="80" as="geometry" />
        </mxCell>
        <mxCell id="4RWsOriVvPdj0GlWGHnn-3" value="&lt;span style=&quot;font-size: 16px;&quot;&gt;商品MDM&lt;/span&gt;" style="rounded=1;whiteSpace=wrap;html=1;" vertex="1" parent="1">
          <mxGeometry x="243.13" y="1040" width="120" height="60" as="geometry" />
        </mxCell>
        <mxCell id="4RWsOriVvPdj0GlWGHnn-4" value="&lt;span style=&quot;font-size: 16px;&quot;&gt;库存LIC&lt;/span&gt;" style="rounded=1;whiteSpace=wrap;html=1;" vertex="1" parent="1">
          <mxGeometry x="386.13" y="1040" width="120" height="60" as="geometry" />
        </mxCell>
        <mxCell id="4RWsOriVvPdj0GlWGHnn-5" value="&lt;span style=&quot;font-size: 16px;&quot;&gt;门店SC&lt;/span&gt;" style="rounded=1;whiteSpace=wrap;html=1;" vertex="1" parent="1">
          <mxGeometry x="529.13" y="1040" width="120" height="60" as="geometry" />
        </mxCell>
        <mxCell id="4RWsOriVvPdj0GlWGHnn-6" value="基础业务平台" style="text;html=1;align=center;verticalAlign=middle;whiteSpace=wrap;rounded=0;fontSize=16;" vertex="1" parent="1">
          <mxGeometry x="155.63" y="1055" width="60" height="30" as="geometry" />
        </mxCell>
        <mxCell id="4RWsOriVvPdj0GlWGHnn-7" value="&lt;span style=&quot;font-size: 16px;&quot;&gt;营销PE&lt;/span&gt;" style="rounded=1;whiteSpace=wrap;html=1;" vertex="1" parent="1">
          <mxGeometry x="675.63" y="1040" width="120" height="60" as="geometry" />
        </mxCell>
        <mxCell id="4RWsOriVvPdj0GlWGHnn-8" value="&lt;span style=&quot;font-size: 16px;&quot;&gt;订单OMS&lt;/span&gt;" style="rounded=1;whiteSpace=wrap;html=1;" vertex="1" parent="1">
          <mxGeometry x="822.63" y="1040" width="120" height="60" as="geometry" />
        </mxCell>
        <mxCell id="4RWsOriVvPdj0GlWGHnn-9" value="" style="rounded=0;whiteSpace=wrap;html=1;" vertex="1" parent="1">
          <mxGeometry x="1017.75" y="1030" width="462.37" height="80" as="geometry" />
        </mxCell>
        <mxCell id="4RWsOriVvPdj0GlWGHnn-10" value="基础数据平台" style="text;html=1;align=center;verticalAlign=middle;whiteSpace=wrap;rounded=0;fontSize=16;" vertex="1" parent="1">
          <mxGeometry x="1071.75" y="1055" width="60" height="30" as="geometry" />
        </mxCell>
        <mxCell id="4RWsOriVvPdj0GlWGHnn-11" value="&lt;span style=&quot;font-size: 16px;&quot;&gt;DMP&lt;/span&gt;" style="rounded=1;whiteSpace=wrap;html=1;" vertex="1" parent="1">
          <mxGeometry x="1157.75" y="1040" width="120" height="60" as="geometry" />
        </mxCell>
        <mxCell id="4RWsOriVvPdj0GlWGHnn-12" value="&lt;span style=&quot;font-size: 16px;&quot;&gt;CDP&lt;/span&gt;" style="rounded=1;whiteSpace=wrap;html=1;" vertex="1" parent="1">
          <mxGeometry x="1304.25" y="1040" width="120" height="60" as="geometry" />
        </mxCell>
      </root>
    </mxGraphModel>
  </diagram>
</mxfile>
